# xmcd CD database file
#
# Track frame offsets:
#	182
#	11665
#	24620
#	41755
#	55997
#	70167
#	86590
#	101222
#	120085
#
# Disc length: 1873 seconds
#
# Revision: 2
# Processed by: cddbd v1.4PL0 Copyright (c) Steve Scherf et al.
# Submitted via: CDex 1.50beta9
#
DISCID=70074f09
DTITLE=Zana - Trazim
DYEAR=1993
DGENRE=Pop
TTITLE0=Prica Se, Prica
TTITLE1=Nemam Virus, Nemam Sidu
TTITLE2=Da Li Znate Engleski
TTITLE3=Nema, Nema
TTITLE4=Pridji, Cik Mi Pridji
TTITLE5=Iz Svake Flase
TTITLE6=Ne Trazi Me
TTITLE7=Trazim
TTITLE8=Suncev Trag
EXTD=YEAR: 1993
EXTT0=
EXTT1=
EXTT2=
EXTT3=
EXTT4=
EXTT5=
EXTT6=
EXTT7=
EXTT8=
PLAYORDER=
